0
SECTION
2
HEADER
9
$ACADVER
1
AC1015
0
ENDSEC
0
SECTION
2
ENTITIES
0
LWPOLYLINE
8
BAYS
90
4
70
1
10
100.0
20
100.0
10
124.0
20
100.0
10
124.0
20
148.0
10
100.0
20
148.0
0
LWPOLYLINE
8
BAYS
90
4
70
1
10
150.0
20
100.0
10
174.0
20
100.0
10
174.0
20
148.0
10
150.0
20
148.0
0
LWPOLYLINE
8
BAYS
90
4
70
1
10
200.0
20
100.0
10
224.0
20
100.0
10
224.0
20
148.0
10
200.0
20
148.0
0
LWPOLYLINE
8
BAYS
90
4
70
1
10
250.0
20
100.0
10
274.0
20
100.0
10
274.0
20
148.0
10
250.0
20
148.0
0
LWPOLYLINE
8
FLOW_RACKS
90
4
70
1
10
100.0
20
200.0
10
220.0
20
200.0
10
220.0
20
320.0
10
100.0
20
320.0
0
LWPOLYLINE
8
FLOW_RACKS
90
4
70
1
10
250.0
20
200.0
10
370.0
20
200.0
10
370.0
20
320.0
10
250.0
20
320.0
0
LWPOLYLINE
8
PALLETS
90
4
70
1
10
400.0
20
100.0
10
448.0
20
100.0
10
448.0
20
152.0
10
400.0
20
152.0
0
LWPOLYLINE
8
PALLETS
90
4
70
1
10
400.0
20
170.0
10
448.0
20
170.0
10
448.0
20
222.0
10
400.0
20
222.0
0
LWPOLYLINE
8
PALLETS
90
4
70
1
10
400.0
20
240.0
10
448.0
20
240.0
10
448.0
20
292.0
10
400.0
20
292.0
0
TEXT
8
LABELS
10
100.0
20
80.0
40
12.0
1
Bay Area
0
TEXT
8
LABELS
10
100.0
20
180.0
40
12.0
1
Flow Rack Zone
0
TEXT
8
LABELS
10
400.0
20
80.0
40
12.0
1
Pallet Storage
0
ENDSEC
0
EOF
